<svg width="446" height="86" viewBox="0 0 446 86" fill="none" xmlns="http://www.w3.org/2000/svg">
<path d="M3 78L20 61L43 72L68 28M68 28L43 33M68 28L73 56" stroke="#FFFFFF" stroke-opacity="0.86" stroke-width="6"/>
<path d="M103.952 85.608C100.928 85.608 98.072 85.2 95.384 84.384C92.744 83.616 90.392 82.44 88.328 80.856L90.272 76.608C92.432 78.144 94.568 79.248 96.68 79.92C98.84 80.592 101.168 80.928 103.664 80.928C110.576 80.928 114.032 77.376 114.032 70.272V64.08C113.024 66.288 111.44 68.04 109.28 69.336C107.168 70.584 104.744 71.208 102.008 71.208C98.792 71.208 96.008 70.464 93.656 68.976C91.304 67.488 89.48 65.448 88.184 62.856C86.936 60.216 86.312 57.168 86.312 53.712C86.312 50.256 86.936 47.232 88.184 44.64C89.48 42 91.304 39.96 93.656 38.52C96.008 37.08 98.792 36.36 102.008 36.36C104.744 36.36 107.168 36.984 109.28 38.232C111.44 39.48 113.024 41.184 114.032 43.344V37.008H119.72V69.48C119.72 74.856 118.376 78.888 115.688 81.576C113.048 84.264 109.136 85.608 103.952 85.608ZM103.088 66.456C106.448 66.456 109.112 65.304 111.08 63C113.048 60.696 114.032 57.6 114.032 53.712C114.032 49.824 113.048 46.752 111.08 44.496C109.112 42.192 106.448 41.04 103.088 41.04C99.776 41.04 97.136 42.192 95.168 44.496C93.2 46.752 92.216 49.824 92.216 53.712C92.216 57.6 93.2 60.696 95.168 63C97.136 65.304 99.776 66.456 103.088 66.456ZM130.66 72V37.008H136.348V43.272C138.22 39.048 142.06 36.72 147.868 36.288L149.956 36.072L150.388 41.112L146.716 41.544C143.404 41.832 140.884 42.888 139.156 44.712C137.428 46.488 136.564 48.936 136.564 52.056V72H130.66ZM170.586 72.648C167.178 72.648 164.226 71.904 161.73 70.416C159.234 68.928 157.29 66.84 155.898 64.152C154.554 61.416 153.882 58.2 153.882 54.504C153.882 50.808 154.554 47.616 155.898 44.928C157.29 42.192 159.234 40.08 161.73 38.592C164.226 37.104 167.178 36.36 170.586 36.36C173.946 36.36 176.874 37.104 179.37 38.592C181.914 40.08 183.858 42.192 185.202 44.928C186.594 47.616 187.29 50.808 187.29 54.504C187.29 58.2 186.594 61.416 185.202 64.152C183.858 66.84 181.914 68.928 179.37 70.416C176.874 71.904 173.946 72.648 170.586 72.648ZM170.586 67.968C173.85 67.968 176.466 66.816 178.434 64.512C180.402 62.16 181.386 58.824 181.386 54.504C181.386 50.136 180.402 46.8 178.434 44.496C176.466 42.192 173.85 41.04 170.586 41.04C167.274 41.04 164.634 42.192 162.666 44.496C160.746 46.8 159.786 50.136 159.786 54.504C159.786 58.824 160.746 62.16 162.666 64.512C164.634 66.816 167.274 67.968 170.586 67.968ZM204.846 72L191.814 37.008H197.934L207.798 65.16L218.022 37.008H222.99L233.07 65.232L243.078 37.008H248.91L235.806 72H230.262L220.398 44.856L210.462 72H204.846ZM270.84 72.648C266.712 72.648 263.616 71.568 261.552 69.408C259.488 67.2 258.456 64.032 258.456 59.904V41.544H251.616V37.008H258.456V26.28H264.288V37.008H275.376V41.544H264.288V59.328C264.288 62.064 264.864 64.152 266.016 65.592C267.168 66.984 269.04 67.68 271.632 67.68C272.4 67.68 273.168 67.584 273.936 67.392C274.704 67.2 275.4 67.008 276.024 66.816L277.032 71.28C276.408 71.616 275.496 71.928 274.296 72.216C273.096 72.504 271.944 72.648 270.84 72.648ZM281.972 72V21.24H287.804V42.768C288.956 40.656 290.564 39.072 292.628 38.016C294.74 36.912 297.092 36.36 299.684 36.36C307.988 36.36 312.14 40.968 312.14 50.184V72H306.308V50.544C306.308 47.28 305.66 44.904 304.364 43.416C303.116 41.88 301.1 41.112 298.316 41.112C295.1 41.112 292.532 42.12 290.612 44.136C288.74 46.104 287.804 48.744 287.804 52.056V72H281.972ZM338.662 72.648C333.142 72.648 328.774 71.04 325.558 67.824C322.342 64.56 320.734 60.144 320.734 54.576C320.734 50.976 321.454 47.808 322.894 45.072C324.334 42.288 326.302 40.152 328.798 38.664C331.342 37.128 334.27 36.36 337.582 36.36C342.334 36.36 346.054 37.896 348.742 40.968C351.43 43.992 352.774 48.168 352.774 53.496V55.728H326.422C326.614 59.712 327.766 62.76 329.878 64.872C331.99 66.936 334.918 67.968 338.662 67.968C340.774 67.968 342.79 67.656 344.71 67.032C346.63 66.36 348.454 65.28 350.182 63.792L352.198 67.896C350.614 69.384 348.598 70.56 346.15 71.424C343.702 72.24 341.206 72.648 338.662 72.648ZM337.726 40.68C334.414 40.68 331.798 41.712 329.878 43.776C327.958 45.84 326.83 48.552 326.494 51.912H347.734C347.59 48.36 346.654 45.6 344.926 43.632C343.246 41.664 340.846 40.68 337.726 40.68ZM356.469 72L371.013 53.928L357.333 37.008H364.245L374.397 49.896L384.621 37.008H391.461L377.781 53.928L392.325 72H385.413L374.325 58.104L363.381 72H356.469Z" fill="white"/>
</svg>
